<svg width="87" height="40" viewBox="0 0 87 40" fill="none" xmlns="http://www.w3.org/2000/svg">
<mask id="mask0_6018_3251" style="mask-type:luminance" maskUnits="userSpaceOnUse" x="0" y="0" width="87" height="40">
<path d="M86.8931 0H0.107422V40H86.8931V0Z" fill="white"/>
</mask>
<g mask="url(#mask0_6018_3251)">
<path d="M0.107422 11.9956H4.7859V16.2799C6.63779 12.9108 9.85424 11.4893 13.1681 11.4893C19.1527 11.4893 23.4413 15.6762 23.4413 22.2585V39.4348H18.7629V22.9595C18.7629 18.5 16.0922 15.9294 12.174 15.6762C9.44487 15.501 4.7664 18.5583 4.7664 23.1154V39.4152H0.107422V11.9956Z" fill="#172121"/>
<path d="M29.6012 0C27.7493 0 26.3457 1.36319 26.3457 3.21324C26.3457 5.16067 27.7688 6.46543 29.6012 6.46543C31.4336 6.46543 32.9736 5.16067 32.9736 3.21324C32.9736 1.36319 31.5115 0 29.6012 0Z" fill="#172121"/>
<path d="M32.0961 12.0156H27.2617V39.4547H32.0961V12.0156Z" fill="#172121"/>
<path d="M61.7664 25.7454C62.2927 13.2039 48.0233 6.9722 40.6353 15.2876V14.4308V0.818359H35.8008V39.4357H40.6353V36.1835C48.0233 44.538 62.3122 38.3062 61.7859 25.7454H61.7664ZM48.3938 35.6382C41.4929 35.6382 39.2511 28.0043 40.5963 22.3374C42.8965 12.1913 57.5363 14.3724 56.6201 25.7454C56.4835 32.2692 53.5595 35.6382 48.3742 35.6382H48.3938Z" fill="#172121"/>
<path d="M75.9771 11.5479C69.1348 11.5479 65.1971 15.4232 64.3783 19.5907L68.8034 21.2266C69.7196 18.3443 71.747 15.8711 76.211 15.9101C78.0629 15.9101 82.0396 16.4358 82.0396 19.7855C82.0396 21.1096 81.2209 21.8107 79.6614 22.1029L72.0589 23.3298C66.698 24.3035 63.5596 27.0493 63.5596 31.7231C63.5596 37.2149 68.7254 39.9607 73.1699 39.9996C75.8796 40.0192 79.447 39.5127 82.1175 36.2411V39.4544H86.8935V21.7524C86.8935 16.0464 83.0142 11.5673 75.9771 11.5673V11.5479ZM82.0396 28.8604C81.9031 32.7748 78.5502 35.8906 74.0861 35.8906C70.8112 35.8906 68.3355 34.2352 68.3355 31.7231C68.3355 29.7757 69.856 27.9451 73.3454 27.1856C73.3454 27.1856 80.4605 25.7835 82.0201 25.5304C82.0201 25.5304 82.0396 28.0425 82.0201 28.8799L82.0396 28.8604Z" fill="#172121"/>
</g>
</svg>
